<svg width="146" height="80" viewBox="0 0 146 80" fill="none" xmlns="http://www.w3.org/2000/svg">
<g id="Logo">
<path id="Logo_2" fill-rule="evenodd" clip-rule="evenodd" d="M57.899 12.7327V25.4659L59.821 28.0896C61.9435 30.9873 63.1752 33.162 64.5226 36.3903L65.4162 38.5314L66.8502 37.5764C69.9525 35.5104 71.2412 35.1507 75.576 35.1419C79.2917 35.1339 80.0646 35.2758 82.2995 36.3731C85.1265 37.7611 87.7891 40.517 89.3358 43.6551C90.7747 46.5749 90.8193 52.7327 89.4233 55.7603C85.7385 63.7521 76.0551 67.0144 68.3709 62.8527C63.5066 60.2184 61.0791 55.8394 60.5117 48.6749C60.3066 46.0879 59.8404 42.8777 59.4754 41.5409C56.9728 32.3732 49.114 24.24 39.5591 20.9296C36.4263 19.8442 35.3949 19.705 30.4997 19.7067C24.1466 19.7094 21.6289 20.3042 16.271 23.0676C3.35182 29.7309 -3.03797 45.3485 1.55318 59.042C3.28023 64.1931 5.03113 66.9569 9.25461 71.2003C12.3304 74.2902 13.7507 75.3477 16.8 76.818C23.1178 79.8651 30.1607 80.7472 36.851 79.3295C40.1765 78.625 47.2 75.4414 47.573 74.4696C47.7016 74.1338 47.0003 72.7907 46.0143 71.4853C45.0284 70.1794 43.3946 67.3325 42.3835 65.1587C41.3724 62.9849 40.4859 61.1368 40.4125 61.0515C40.3396 60.9662 39.6069 61.4099 38.7845 62.0369C36.5001 63.7795 33.7288 64.616 30.2787 64.6041C26.594 64.5917 24.022 63.7428 21.2387 61.6202C17.0917 58.4574 15.2056 54.0797 15.5666 48.4535C16.1915 38.7206 26.3222 32.3692 35.6534 35.8604C39.8725 37.4394 43.7817 41.8158 44.8207 46.1241C44.9891 46.8219 45.3064 49.4341 45.5256 51.9297C45.9922 57.2425 47.1271 60.9573 49.5281 65.0332C58.5389 80.3282 78.6783 84.6807 93.0736 74.4444C101.187 68.6751 106.069 58.9647 106.069 48.5963C106.069 43.652 110.458 37.7536 115.573 35.8251C119.193 34.4604 124.269 34.6792 127.511 36.339C129.872 37.5486 133.6 41.1945 134.107 42.7898C134.274 43.3183 134.568 43.7505 134.759 43.7505C134.949 43.7505 136.254 42.5079 137.657 40.9885C139.06 39.4696 141.495 36.9087 143.069 35.2983L145.93 32.3705L142.974 29.2364C137.113 23.0238 129.014 19.4447 120.816 19.4447C114.186 19.4447 105.87 22.6579 100.937 27.1267L98.2353 29.5736L97.1804 28.4387C95.4706 26.599 90.9002 23.502 87.862 22.1245C84.4671 20.5853 79.2462 19.4447 75.5946 19.4447H72.9245V9.72234V0H65.4117H57.899V12.7327ZM130.596 61.2216C125.757 65.4062 117.309 65.8061 112.426 62.0816C111.636 61.4788 110.9 60.9856 110.793 60.9856C110.684 60.9856 110.144 62.1947 109.591 63.6725C108.579 66.378 105.854 70.9828 104.199 72.7846C102.973 74.1183 103.347 74.7321 106.353 76.3257C110.706 78.6334 114.251 79.5968 119.369 79.8633C127.998 80.3127 134.715 77.8998 141.644 71.8614L143.411 70.3208L138.115 64.9903C135.202 62.0586 132.716 59.6673 132.591 59.6766C132.466 59.6855 131.568 60.3811 130.596 61.2216Z" fill="#172029"/>
</g>
</svg>
